<mxfile host="app.diagrams.net" modified="2023-04-19T09:26:20.270Z" agent="Mozilla/5.0 (Windows NT 10.0; Win64; x64) AppleWebKit/537.36 (KHTML, like Gecko) Chrome/112.0.0.0 Safari/537.36" etag="W5Krx1pA5aWaw1yc8Q7a" version="21.1.8" type="github">
  <diagram name="第 1 页" id="JwJRa0KvJO2CLYto1S3l">
    <mxGraphModel dx="1434" dy="700" grid="1" gridSize="10" guides="1" tooltips="1" connect="1" arrows="1" fold="1" page="1" pageScale="1" pageWidth="827" pageHeight="1169" math="0" shadow="0">
      <root>
        <mxCell id="0" />
        <mxCell id="1" parent="0" />
        <mxCell id="1attUSrDZyL3AQSFzX-j-3" value="" style="edgeStyle=orthogonalEdgeStyle;rounded=0;orthogonalLoop=1;jettySize=auto;html=1;" edge="1" parent="1" source="1attUSrDZyL3AQSFzX-j-1" target="1attUSrDZyL3AQSFzX-j-2">
          <mxGeometry relative="1" as="geometry" />
        </mxCell>
        <mxCell id="1attUSrDZyL3AQSFzX-j-1" value="&lt;font style=&quot;font-size: 17px;&quot;&gt;移除订单&lt;/font&gt;" style="strokeWidth=2;html=1;shape=mxgraph.flowchart.start_1;whiteSpace=wrap;" vertex="1" parent="1">
          <mxGeometry x="370" y="130" width="100" height="60" as="geometry" />
        </mxCell>
        <mxCell id="1attUSrDZyL3AQSFzX-j-5" value="&lt;font style=&quot;font-size: 14px;&quot;&gt;&lt;b&gt;草稿&lt;/b&gt;&lt;/font&gt;" style="edgeStyle=orthogonalEdgeStyle;rounded=0;orthogonalLoop=1;jettySize=auto;html=1;entryX=0.5;entryY=0;entryDx=0;entryDy=0;" edge="1" parent="1" source="1attUSrDZyL3AQSFzX-j-2" target="1attUSrDZyL3AQSFzX-j-4">
          <mxGeometry x="-0.3494" relative="1" as="geometry">
            <mxPoint as="offset" />
          </mxGeometry>
        </mxCell>
        <mxCell id="1attUSrDZyL3AQSFzX-j-8" style="edgeStyle=orthogonalEdgeStyle;rounded=0;orthogonalLoop=1;jettySize=auto;html=1;entryX=0.5;entryY=0;entryDx=0;entryDy=0;entryPerimeter=0;" edge="1" parent="1" source="1attUSrDZyL3AQSFzX-j-2" target="1attUSrDZyL3AQSFzX-j-6">
          <mxGeometry relative="1" as="geometry" />
        </mxCell>
        <mxCell id="1attUSrDZyL3AQSFzX-j-9" value="&lt;b&gt;&lt;font style=&quot;font-size: 14px;&quot;&gt;已提交&lt;/font&gt;&lt;/b&gt;" style="edgeLabel;html=1;align=center;verticalAlign=middle;resizable=0;points=[];" vertex="1" connectable="0" parent="1attUSrDZyL3AQSFzX-j-8">
          <mxGeometry x="-0.3789" y="3" relative="1" as="geometry">
            <mxPoint x="-3" y="-4" as="offset" />
          </mxGeometry>
        </mxCell>
        <mxCell id="1attUSrDZyL3AQSFzX-j-2" value="&lt;font style=&quot;font-size: 17px;&quot;&gt;当前交接单&lt;br&gt;是草稿或&lt;br&gt;已提交&lt;/font&gt;" style="rhombus;whiteSpace=wrap;html=1;strokeWidth=2;rounded=1;" vertex="1" parent="1">
          <mxGeometry x="367.5" y="220" width="105" height="100" as="geometry" />
        </mxCell>
        <mxCell id="1attUSrDZyL3AQSFzX-j-7" style="edgeStyle=orthogonalEdgeStyle;rounded=0;orthogonalLoop=1;jettySize=auto;html=1;exitX=0.5;exitY=1;exitDx=0;exitDy=0;" edge="1" parent="1" source="1attUSrDZyL3AQSFzX-j-4" target="1attUSrDZyL3AQSFzX-j-6">
          <mxGeometry relative="1" as="geometry" />
        </mxCell>
        <mxCell id="1attUSrDZyL3AQSFzX-j-4" value="&lt;font style=&quot;font-size: 17px;&quot;&gt;更新当前订单记录&lt;br&gt;移除交接单相关数据&lt;br&gt;&lt;/font&gt;" style="rounded=1;whiteSpace=wrap;html=1;strokeWidth=2;fillColor=#cdeb8b;strokeColor=#36393d;" vertex="1" parent="1">
          <mxGeometry x="180" y="340" width="160" height="70" as="geometry" />
        </mxCell>
        <mxCell id="1attUSrDZyL3AQSFzX-j-6" value="&lt;font style=&quot;font-size: 17px;&quot;&gt;结束&lt;/font&gt;" style="strokeWidth=2;html=1;shape=mxgraph.flowchart.terminator;whiteSpace=wrap;" vertex="1" parent="1">
          <mxGeometry x="370" y="510" width="100" height="60" as="geometry" />
        </mxCell>
      </root>
    </mxGraphModel>
  </diagram>
</mxfile>
